<svg id="visual" viewBox="0 0 300 100" width="300" height="100" xmlns="http://www.w3.org/2000/svg" xmlns:xlink="http://www.w3.org/1999/xlink" version="1.1"><path d="M0 66L7.2 65.5C14.3 65 28.7 64 43 64.8C57.3 65.7 71.7 68.3 86 69.8C100.3 71.3 114.7 71.7 128.8 71C143 70.3 157 68.7 171.2 66.5C185.3 64.3 199.7 61.7 214 62.3C228.3 63 242.7 67 257 67.8C271.3 68.7 285.7 66.3 292.8 65.2L300 64L300 101L292.8 101C285.7 101 271.3 101 257 101C242.7 101 228.3 101 214 101C199.7 101 185.3 101 171.2 101C157 101 143 101 128.8 101C114.7 101 100.3 101 86 101C71.7 101 57.3 101 43 101C28.7 101 14.3 101 7.2 101L0 101Z" fill="#062340"></path><path d="M0 73L7.2 72.2C14.3 71.3 28.7 69.7 43 70.2C57.3 70.7 71.7 73.3 86 74.8C100.3 76.3 114.7 76.7 128.8 76.3C143 76 157 75 171.2 74.5C185.3 74 199.7 74 214 72.8C228.3 71.7 242.7 69.3 257 68.7C271.3 68 285.7 69 292.8 69.5L300 70L300 101L292.8 101C285.7 101 271.3 101 257 101C242.7 101 228.3 101 214 101C199.7 101 185.3 101 171.2 101C157 101 143 101 128.8 101C114.7 101 100.3 101 86 101C71.7 101 57.3 101 43 101C28.7 101 14.3 101 7.2 101L0 101Z" fill="#051e33"></path><path d="M0 76L7.2 75.8C14.3 75.7 28.7 75.3 43 75.2C57.3 75 71.7 75 86 76.3C100.3 77.7 114.7 80.3 128.8 81.5C143 82.7 157 82.3 171.2 80.8C185.3 79.3 199.7 76.7 214 76.2C228.3 75.7 242.7 77.3 257 78.7C271.3 80 285.7 81 292.8 81.5L300 82L300 101L292.8 101C285.7 101 271.3 101 257 101C242.7 101 228.3 101 214 101C199.7 101 185.3 101 171.2 101C157 101 143 101 128.8 101C114.7 101 100.3 101 86 101C71.7 101 57.3 101 43 101C28.7 101 14.3 101 7.2 101L0 101Z" fill="#061827"></path><path d="M0 81L7.2 81.3C14.3 81.7 28.7 82.3 43 82.5C57.3 82.7 71.7 82.3 86 82.8C100.3 83.3 114.7 84.7 128.8 85.2C143 85.7 157 85.3 171.2 84.5C185.3 83.7 199.7 82.3 214 81.5C228.3 80.7 242.7 80.3 257 81.7C271.3 83 285.7 86 292.8 87.5L300 89L300 101L292.8 101C285.7 101 271.3 101 257 101C242.7 101 228.3 101 214 101C199.7 101 185.3 101 171.2 101C157 101 143 101 128.8 101C114.7 101 100.3 101 86 101C71.7 101 57.3 101 43 101C28.7 101 14.3 101 7.2 101L0 101Z" fill="#05121b"></path><path d="M0 87L7.2 87.2C14.3 87.3 28.7 87.7 43 89C57.3 90.3 71.7 92.7 86 92.5C100.3 92.3 114.7 89.7 128.8 88.3C143 87 157 87 171.2 87.5C185.3 88 199.7 89 214 89C228.3 89 242.7 88 257 87.5C271.3 87 285.7 87 292.8 87L300 87L300 101L292.8 101C285.7 101 271.3 101 257 101C242.7 101 228.3 101 214 101C199.7 101 185.3 101 171.2 101C157 101 143 101 128.8 101C114.7 101 100.3 101 86 101C71.7 101 57.3 101 43 101C28.7 101 14.3 101 7.2 101L0 101Z" fill="#02080d"></path></svg>