<svg id="visual" viewBox="0 0 960 300" width="960" height="300" xmlns="http://www.w3.org/2000/svg" xmlns:xlink="http://www.w3.org/1999/xlink" version="1.1"><path d="M0 84L22.8 89C45.7 94 91.3 104 137 106.3C182.7 108.7 228.3 103.3 274 98C319.7 92.7 365.3 87.3 411.2 86.8C457 86.3 503 90.7 548.8 95.5C594.7 100.3 640.3 105.7 686 109.5C731.7 113.3 777.3 115.7 823 115C868.7 114.3 914.3 110.7 937.2 108.8L960 107L960 0L937.2 0C914.3 0 868.7 0 823 0C777.3 0 731.7 0 686 0C640.3 0 594.7 0 548.8 0C503 0 457 0 411.2 0C365.3 0 319.7 0 274 0C228.3 0 182.7 0 137 0C91.3 0 45.7 0 22.8 0L0 0Z" fill="#1ca84d"></path><path d="M0 14L22.8 14.8C45.7 15.7 91.3 17.3 137 19.8C182.7 22.3 228.3 25.7 274 26.8C319.7 28 365.3 27 411.2 25.7C457 24.3 503 22.7 548.8 21.8C594.7 21 640.3 21 686 19.7C731.7 18.3 777.3 15.7 823 16.7C868.7 17.7 914.3 22.3 937.2 24.7L960 27L960 0L937.2 0C914.3 0 868.7 0 823 0C777.3 0 731.7 0 686 0C640.3 0 594.7 0 548.8 0C503 0 457 0 411.2 0C365.3 0 319.7 0 274 0C228.3 0 182.7 0 137 0C91.3 0 45.7 0 22.8 0L0 0Z" fill="#001220"></path></svg>