<svg id="visual" viewBox="0 0 960 300" width="960" height="300" xmlns="http://www.w3.org/2000/svg" xmlns:xlink="http://www.w3.org/1999/xlink" version="1.1"><path d="M0 183L22.8 181.8C45.7 180.7 91.3 178.3 137 179.3C182.7 180.3 228.3 184.7 274 186C319.7 187.3 365.3 185.7 411.2 187.7C457 189.7 503 195.3 548.8 200C594.7 204.7 640.3 208.3 686 205C731.7 201.7 777.3 191.3 823 186C868.7 180.7 914.3 180.3 937.2 180.2L960 180L960 301L937.2 301C914.3 301 868.7 301 823 301C777.3 301 731.7 301 686 301C640.3 301 594.7 301 548.8 301C503 301 457 301 411.2 301C365.3 301 319.7 301 274 301C228.3 301 182.7 301 137 301C91.3 301 45.7 301 22.8 301L0 301Z" fill="#1ed760"></path><path d="M0 213L22.8 213.5C45.7 214 91.3 215 137 216.3C182.7 217.7 228.3 219.3 274 217.2C319.7 215 365.3 209 411.2 205.3C457 201.7 503 200.3 548.8 201C594.7 201.7 640.3 204.3 686 206.5C731.7 208.7 777.3 210.3 823 211.5C868.7 212.7 914.3 213.3 937.2 213.7L960 214L960 301L937.2 301C914.3 301 868.7 301 823 301C777.3 301 731.7 301 686 301C640.3 301 594.7 301 548.8 301C503 301 457 301 411.2 301C365.3 301 319.7 301 274 301C228.3 301 182.7 301 137 301C91.3 301 45.7 301 22.8 301L0 301Z" fill="#25a748"></path><path d="M0 229L22.8 230.5C45.7 232 91.3 235 137 234.8C182.7 234.7 228.3 231.3 274 233.5C319.7 235.7 365.3 243.3 411.2 243.7C457 244 503 237 548.8 235.5C594.7 234 640.3 238 686 237.5C731.7 237 777.3 232 823 229.5C868.7 227 914.3 227 937.2 227L960 227L960 301L937.2 301C914.3 301 868.7 301 823 301C777.3 301 731.7 301 686 301C640.3 301 594.7 301 548.8 301C503 301 457 301 411.2 301C365.3 301 319.7 301 274 301C228.3 301 182.7 301 137 301C91.3 301 45.7 301 22.8 301L0 301Z" fill="#227932"></path><path d="M0 247L22.8 246.3C45.7 245.7 91.3 244.3 137 244C182.7 243.7 228.3 244.3 274 248.8C319.7 253.3 365.3 261.7 411.2 264.8C457 268 503 266 548.8 262.3C594.7 258.7 640.3 253.3 686 251C731.7 248.7 777.3 249.3 823 252.5C868.7 255.7 914.3 261.3 937.2 264.2L960 267L960 301L937.2 301C914.3 301 868.7 301 823 301C777.3 301 731.7 301 686 301C640.3 301 594.7 301 548.8 301C503 301 457 301 411.2 301C365.3 301 319.7 301 274 301C228.3 301 182.7 301 137 301C91.3 301 45.7 301 22.8 301L0 301Z" fill="#194f1e"></path><path d="M0 273L22.8 273.3C45.7 273.7 91.3 274.3 137 274.5C182.7 274.7 228.3 274.3 274 274.7C319.7 275 365.3 276 411.2 277.3C457 278.7 503 280.3 548.8 278.2C594.7 276 640.3 270 686 267.8C731.7 265.7 777.3 267.3 823 267.7C868.7 268 914.3 267 937.2 266.5L960 266L960 301L937.2 301C914.3 301 868.7 301 823 301C777.3 301 731.7 301 686 301C640.3 301 594.7 301 548.8 301C503 301 457 301 411.2 301C365.3 301 319.7 301 274 301C228.3 301 182.7 301 137 301C91.3 301 45.7 301 22.8 301L0 301Z" fill="#0e280c"></path></svg>