<svg id="visual" viewBox="0 0 300 100" width="300" height="100" xmlns="http://www.w3.org/2000/svg" xmlns:xlink="http://www.w3.org/1999/xlink" version="1.1"><path d="M0 60L7.2 61C14.3 62 28.7 64 43 64.3C57.3 64.7 71.7 63.3 86 62C100.3 60.7 114.7 59.3 128.8 59.2C143 59 157 60 171.2 61C185.3 62 199.7 63 214 62.3C228.3 61.7 242.7 59.3 257 59.5C271.3 59.7 285.7 62.3 292.8 63.7L300 65L300 101L292.8 101C285.7 101 271.3 101 257 101C242.7 101 228.3 101 214 101C199.7 101 185.3 101 171.2 101C157 101 143 101 128.8 101C114.7 101 100.3 101 86 101C71.7 101 57.3 101 43 101C28.7 101 14.3 101 7.2 101L0 101Z" fill="#65a815"></path><path d="M0 69L7.2 70C14.3 71 28.7 73 43 73.2C57.3 73.3 71.7 71.7 86 70.3C100.3 69 114.7 68 128.8 68.3C143 68.7 157 70.3 171.2 70C185.3 69.7 199.7 67.3 214 67.8C228.3 68.3 242.7 71.7 257 73.5C271.3 75.3 285.7 75.7 292.8 75.8L300 76L300 101L292.8 101C285.7 101 271.3 101 257 101C242.7 101 228.3 101 214 101C199.7 101 185.3 101 171.2 101C157 101 143 101 128.8 101C114.7 101 100.3 101 86 101C71.7 101 57.3 101 43 101C28.7 101 14.3 101 7.2 101L0 101Z" fill="#578f14"></path><path d="M0 74L7.2 75.5C14.3 77 28.7 80 43 80C57.3 80 71.7 77 86 75.7C100.3 74.3 114.7 74.7 128.8 75C143 75.3 157 75.7 171.2 75.8C185.3 76 199.7 76 214 77.3C228.3 78.7 242.7 81.3 257 82.3C271.3 83.3 285.7 82.7 292.8 82.3L300 82L300 101L292.8 101C285.7 101 271.3 101 257 101C242.7 101 228.3 101 214 101C199.7 101 185.3 101 171.2 101C157 101 143 101 128.8 101C114.7 101 100.3 101 86 101C71.7 101 57.3 101 43 101C28.7 101 14.3 101 7.2 101L0 101Z" fill="#4a7712"></path><path d="M0 88L7.2 87.5C14.3 87 28.7 86 43 84.7C57.3 83.3 71.7 81.7 86 81.7C100.3 81.7 114.7 83.3 128.8 84.2C143 85 157 85 171.2 84.2C185.3 83.3 199.7 81.7 214 82.3C228.3 83 242.7 86 257 86.5C271.3 87 285.7 85 292.8 84L300 83L300 101L292.8 101C285.7 101 271.3 101 257 101C242.7 101 228.3 101 214 101C199.7 101 185.3 101 171.2 101C157 101 143 101 128.8 101C114.7 101 100.3 101 86 101C71.7 101 57.3 101 43 101C28.7 101 14.3 101 7.2 101L0 101Z" fill="#3d6010"></path><path d="M0 95L7.2 93.7C14.3 92.3 28.7 89.7 43 89.2C57.3 88.7 71.7 90.3 86 90.3C100.3 90.3 114.7 88.7 128.8 87.8C143 87 157 87 171.2 87C185.3 87 199.7 87 214 87.5C228.3 88 242.7 89 257 89C271.3 89 285.7 88 292.8 87.5L300 87L300 101L292.8 101C285.7 101 271.3 101 257 101C242.7 101 228.3 101 214 101C199.7 101 185.3 101 171.2 101C157 101 143 101 128.8 101C114.7 101 100.3 101 86 101C71.7 101 57.3 101 43 101C28.7 101 14.3 101 7.2 101L0 101Z" fill="#304a0e"></path></svg>