<svg id="visual" viewBox="0 0 300 100" width="300" height="100" xmlns="http://www.w3.org/2000/svg" xmlns:xlink="http://www.w3.org/1999/xlink" version="1.1"><path d="M0 58L7.2 58.3C14.3 58.7 28.7 59.3 43 60.5C57.3 61.7 71.7 63.3 86 64.8C100.3 66.3 114.7 67.7 128.8 68.3C143 69 157 69 171.2 67.7C185.3 66.3 199.7 63.7 214 63.8C228.3 64 242.7 67 257 67.7C271.3 68.3 285.7 66.7 292.8 65.8L300 65L300 101L292.8 101C285.7 101 271.3 101 257 101C242.7 101 228.3 101 214 101C199.7 101 185.3 101 171.2 101C157 101 143 101 128.8 101C114.7 101 100.3 101 86 101C71.7 101 57.3 101 43 101C28.7 101 14.3 101 7.2 101L0 101Z" fill="#c429d3"></path><path d="M0 76L7.2 76C14.3 76 28.7 76 43 74.2C57.3 72.3 71.7 68.7 86 68.3C100.3 68 114.7 71 128.8 71.2C143 71.3 157 68.7 171.2 67.5C185.3 66.3 199.7 66.7 214 68.7C228.3 70.7 242.7 74.3 257 76.2C271.3 78 285.7 78 292.8 78L300 78L300 101L292.8 101C285.7 101 271.3 101 257 101C242.7 101 228.3 101 214 101C199.7 101 185.3 101 171.2 101C157 101 143 101 128.8 101C114.7 101 100.3 101 86 101C71.7 101 57.3 101 43 101C28.7 101 14.3 101 7.2 101L0 101Z" fill="#a622ac"></path><path d="M0 84L7.2 83C14.3 82 28.7 80 43 78.8C57.3 77.7 71.7 77.3 86 77.2C100.3 77 114.7 77 128.8 76.3C143 75.7 157 74.3 171.2 75.2C185.3 76 199.7 79 214 79.8C228.3 80.7 242.7 79.3 257 79C271.3 78.7 285.7 79.3 292.8 79.7L300 80L300 101L292.8 101C285.7 101 271.3 101 257 101C242.7 101 228.3 101 214 101C199.7 101 185.3 101 171.2 101C157 101 143 101 128.8 101C114.7 101 100.3 101 86 101C71.7 101 57.3 101 43 101C28.7 101 14.3 101 7.2 101L0 101Z" fill="#871c87"></path><path d="M0 83L7.2 83C14.3 83 28.7 83 43 83.8C57.3 84.7 71.7 86.3 86 87C100.3 87.7 114.7 87.3 128.8 86C143 84.7 157 82.3 171.2 82.7C185.3 83 199.7 86 214 87.2C228.3 88.3 242.7 87.7 257 86.3C271.3 85 285.7 83 292.8 82L300 81L300 101L292.8 101C285.7 101 271.3 101 257 101C242.7 101 228.3 101 214 101C199.7 101 185.3 101 171.2 101C157 101 143 101 128.8 101C114.7 101 100.3 101 86 101C71.7 101 57.3 101 43 101C28.7 101 14.3 101 7.2 101L0 101Z" fill="#691765"></path><path d="M0 89L7.2 88.7C14.3 88.3 28.7 87.7 43 88.5C57.3 89.3 71.7 91.7 86 92.8C100.3 94 114.7 94 128.8 93.5C143 93 157 92 171.2 91.8C185.3 91.7 199.7 92.3 214 93C228.3 93.7 242.7 94.3 257 93.3C271.3 92.3 285.7 89.7 292.8 88.3L300 87L300 101L292.8 101C285.7 101 271.3 101 257 101C242.7 101 228.3 101 214 101C199.7 101 185.3 101 171.2 101C157 101 143 101 128.8 101C114.7 101 100.3 101 86 101C71.7 101 57.3 101 43 101C28.7 101 14.3 101 7.2 101L0 101Z" fill="#4b1246"></path></svg>