<svg id="visual" viewBox="0 0 300 100" width="300" height="100" xmlns="http://www.w3.org/2000/svg" xmlns:xlink="http://www.w3.org/1999/xlink" version="1.1"><path d="M0 58L7.2 60.2C14.3 62.3 28.7 66.7 43 67.7C57.3 68.7 71.7 66.3 86 64.8C100.3 63.3 114.7 62.7 128.8 63.2C143 63.7 157 65.3 171.2 65.5C185.3 65.7 199.7 64.3 214 64.2C228.3 64 242.7 65 257 65.5C271.3 66 285.7 66 292.8 66L300 66L300 101L292.8 101C285.7 101 271.3 101 257 101C242.7 101 228.3 101 214 101C199.7 101 185.3 101 171.2 101C157 101 143 101 128.8 101C114.7 101 100.3 101 86 101C71.7 101 57.3 101 43 101C28.7 101 14.3 101 7.2 101L0 101Z" fill="#9d9381"></path><path d="M0 78L7.2 77.7C14.3 77.3 28.7 76.7 43 76.5C57.3 76.3 71.7 76.7 86 76C100.3 75.3 114.7 73.7 128.8 72.3C143 71 157 70 171.2 70.3C185.3 70.7 199.7 72.3 214 71.7C228.3 71 242.7 68 257 68C271.3 68 285.7 71 292.8 72.5L300 74L300 101L292.8 101C285.7 101 271.3 101 257 101C242.7 101 228.3 101 214 101C199.7 101 185.3 101 171.2 101C157 101 143 101 128.8 101C114.7 101 100.3 101 86 101C71.7 101 57.3 101 43 101C28.7 101 14.3 101 7.2 101L0 101Z" fill="#8f8676"></path><path d="M0 75L7.2 75.7C14.3 76.3 28.7 77.7 43 78C57.3 78.3 71.7 77.7 86 78.3C100.3 79 114.7 81 128.8 81.5C143 82 157 81 171.2 79.5C185.3 78 199.7 76 214 75.2C228.3 74.3 242.7 74.7 257 76.3C271.3 78 285.7 81 292.8 82.5L300 84L300 101L292.8 101C285.7 101 271.3 101 257 101C242.7 101 228.3 101 214 101C199.7 101 185.3 101 171.2 101C157 101 143 101 128.8 101C114.7 101 100.3 101 86 101C71.7 101 57.3 101 43 101C28.7 101 14.3 101 7.2 101L0 101Z" fill="#81796b"></path><path d="M0 88L7.2 87C14.3 86 28.7 84 43 84C57.3 84 71.7 86 86 85.8C100.3 85.7 114.7 83.3 128.8 82.5C143 81.7 157 82.3 171.2 82.7C185.3 83 199.7 83 214 84C228.3 85 242.7 87 257 87.8C271.3 88.7 285.7 88.3 292.8 88.2L300 88L300 101L292.8 101C285.7 101 271.3 101 257 101C242.7 101 228.3 101 214 101C199.7 101 185.3 101 171.2 101C157 101 143 101 128.8 101C114.7 101 100.3 101 86 101C71.7 101 57.3 101 43 101C28.7 101 14.3 101 7.2 101L0 101Z" fill="#736c60"></path><path d="M0 88L7.2 88.2C14.3 88.3 28.7 88.7 43 88.8C57.3 89 71.7 89 86 89.3C100.3 89.7 114.7 90.3 128.8 91C143 91.7 157 92.3 171.2 92.3C185.3 92.3 199.7 91.7 214 91C228.3 90.3 242.7 89.7 257 89.2C271.3 88.7 285.7 88.3 292.8 88.2L300 88L300 101L292.8 101C285.7 101 271.3 101 257 101C242.7 101 228.3 101 214 101C199.7 101 185.3 101 171.2 101C157 101 143 101 128.8 101C114.7 101 100.3 101 86 101C71.7 101 57.3 101 43 101C28.7 101 14.3 101 7.2 101L0 101Z" fill="#666055"></path></svg>