<svg id="visual" viewBox="0 0 300 100" width="300" height="100" xmlns="http://www.w3.org/2000/svg" xmlns:xlink="http://www.w3.org/1999/xlink" version="1.1"><path d="M0 72L7.2 71.3C14.3 70.7 28.7 69.3 43 67.2C57.3 65 71.7 62 86 62.3C100.3 62.7 114.7 66.3 128.8 66.3C143 66.3 157 62.7 171.2 61.7C185.3 60.7 199.7 62.3 214 63C228.3 63.7 242.7 63.3 257 62.3C271.3 61.3 285.7 59.7 292.8 58.8L300 58L300 101L292.8 101C285.7 101 271.3 101 257 101C242.7 101 228.3 101 214 101C199.7 101 185.3 101 171.2 101C157 101 143 101 128.8 101C114.7 101 100.3 101 86 101C71.7 101 57.3 101 43 101C28.7 101 14.3 101 7.2 101L0 101Z" fill="#fa7268"></path><path d="M0 77L7.2 76.3C14.3 75.7 28.7 74.3 43 74C57.3 73.7 71.7 74.3 86 73.8C100.3 73.3 114.7 71.7 128.8 71.3C143 71 157 72 171.2 72.2C185.3 72.3 199.7 71.7 214 71C228.3 70.3 242.7 69.7 257 70C271.3 70.3 285.7 71.7 292.8 72.3L300 73L300 101L292.8 101C285.7 101 271.3 101 257 101C242.7 101 228.3 101 214 101C199.7 101 185.3 101 171.2 101C157 101 143 101 128.8 101C114.7 101 100.3 101 86 101C71.7 101 57.3 101 43 101C28.7 101 14.3 101 7.2 101L0 101Z" fill="#ef5f67"></path><path d="M0 78L7.2 78C14.3 78 28.7 78 43 78.7C57.3 79.3 71.7 80.7 86 80.8C100.3 81 114.7 80 128.8 79.3C143 78.7 157 78.3 171.2 78.5C185.3 78.7 199.7 79.3 214 80C228.3 80.7 242.7 81.3 257 80.3C271.3 79.3 285.7 76.7 292.8 75.3L300 74L300 101L292.8 101C285.7 101 271.3 101 257 101C242.7 101 228.3 101 214 101C199.7 101 185.3 101 171.2 101C157 101 143 101 128.8 101C114.7 101 100.3 101 86 101C71.7 101 57.3 101 43 101C28.7 101 14.3 101 7.2 101L0 101Z" fill="#e34c67"></path><path d="M0 89L7.2 87.5C14.3 86 28.7 83 43 82.7C57.3 82.3 71.7 84.7 86 84.7C100.3 84.7 114.7 82.3 128.8 81.7C143 81 157 82 171.2 83.2C185.3 84.3 199.7 85.7 214 86.8C228.3 88 242.7 89 257 88.3C271.3 87.7 285.7 85.3 292.8 84.2L300 83L300 101L292.8 101C285.7 101 271.3 101 257 101C242.7 101 228.3 101 214 101C199.7 101 185.3 101 171.2 101C157 101 143 101 128.8 101C114.7 101 100.3 101 86 101C71.7 101 57.3 101 43 101C28.7 101 14.3 101 7.2 101L0 101Z" fill="#d53867"></path><path d="M0 92L7.2 91.7C14.3 91.3 28.7 90.7 43 89.8C57.3 89 71.7 88 86 87.5C100.3 87 114.7 87 128.8 88C143 89 157 91 171.2 91.7C185.3 92.3 199.7 91.7 214 91.8C228.3 92 242.7 93 257 92.5C271.3 92 285.7 90 292.8 89L300 88L300 101L292.8 101C285.7 101 271.3 101 257 101C242.7 101 228.3 101 214 101C199.7 101 185.3 101 171.2 101C157 101 143 101 128.8 101C114.7 101 100.3 101 86 101C71.7 101 57.3 101 43 101C28.7 101 14.3 101 7.2 101L0 101Z" fill="#c62368"></path></svg>